<?xml version="1.0" standalone="no"?>
<!DOCTYPE svg PUBLIC "-//W3C//DTD SVG 20010904//EN"
 "http://www.w3.org/TR/2001/REC-SVG-20010904/DTD/svg10.dtd">
<svg version="1.0" xmlns="http://www.w3.org/2000/svg"
 width="1120.000000pt" height="1120.000000pt" viewBox="0 0 1120.000000 1120.000000"
 preserveAspectRatio="xMidYMid meet">
<metadata>
Created by potrace 1.14, written by Peter Selinger 2001-2017
</metadata>
<g transform="translate(0.000000,1120.000000) scale(0.100000,-0.100000)"
fill="#000000" stroke="none">
<path d="M5298 11195 c-1 -1 -55 -6 -118 -9 -63 -4 -128 -9 -145 -11 -16 -2
-61 -6 -100 -9 -100 -9 -151 -14 -225 -26 -36 -5 -83 -12 -105 -15 -23 -3 -52
-7 -65 -10 -13 -3 -42 -7 -65 -10 -22 -3 -49 -9 -60 -12 -11 -3 -31 -7 -45 -8
-20 -2 -172 -34 -240 -50 -8 -2 -44 -11 -80 -19 -36 -8 -101 -25 -145 -37 -44
-11 -84 -22 -90 -23 -52 -12 -274 -81 -310 -97 -11 -5 -56 -22 -100 -38 -44
-16 -93 -35 -110 -42 -16 -6 -35 -13 -41 -14 -6 -2 -45 -19 -86 -38 -42 -19
-79 -32 -82 -29 -3 3 -6 0 -6 -6 0 -7 -4 -12 -10 -12 -15 0 -185 -83 -188 -92
-2 -4 -10 -8 -18 -8 -8 0 -32 -11 -54 -25 -22 -14 -42 -25 -45 -25 -2 0 -34
-18 -70 -40 -36 -22 -67 -40 -69 -40 -4 0 -135 -84 -151 -97 -6 -4 -38 -27
-73 -51 -35 -23 -69 -47 -75 -52 -7 -6 -50 -40 -97 -77 -47 -37 -101 -81 -120
-98 -35 -30 -306 -303 -325 -327 -34 -43 -91 -114 -95 -118 -12 -11 -108 -147
-120 -170 -7 -14 -16 -27 -19 -30 -19 -15 -211 -365 -200 -365 1 0 -8 -22 -20
-50 -74 -167 -165 -508 -186 -700 -16 -145 -19 -207 -19 -395 0 -233 8 -364
30 -495 2 -16 6 -43 9 -60 12 -81 16 -104 27 -155 6 -30 12 -57 13 -60 1 -3 5
-25 9 -50 5 -25 11 -49 14 -55 3 -5 7 -16 8 -25 3 -24 13 -60 24 -95 6 -18 13
-42 15 -54 7 -39 107 -326 116 -335 5 -6 9 -16 9 -24 0 -7 14 -46 31 -85 17
-40 40 -94 52 -122 41 -96 190 -389 258 -508 38 -66 69 -124 69 -129 0 -4 5
-8 10 -8 6 0 10 -4 10 -9 0 -6 14 -30 30 -54 17 -25 30 -50 30 -56 0 -6 5 -11
10 -11 6 0 10 -4 10 -9 0 -5 25 -46 55 -91 30 -45 55 -84 55 -87 0 -2 6 -11
12 -18 27 -30 38 -44 38 -50 0 -3 20 -33 45 -68 25 -34 51 -71 59 -82 31 -43
109 -149 118 -159 4 -6 52 -67 105 -136 93 -121 212 -270 223 -280 4 -4 39
-46 110 -133 8 -10 28 -33 43 -50 16 -18 37 -41 46 -52 35 -40 177 -201 208
-235 17 -19 41 -46 53 -60 19 -22 137 -151 215 -236 17 -18 71 -76 120 -130
50 -54 115 -123 145 -155 30 -32 89 -95 130 -140 41 -45 95 -103 120 -129 43
-46 165 -180 203 -224 10 -12 42 -48 71 -81 29 -33 77 -89 107 -125 29 -36 64
-75 76 -88 13 -13 23 -27 23 -32 0 -5 10 -12 23 -16 28 -9 2552 -11 2575 -2 9
4 13 7 8 7 -6 1 -3 7 6 14 9 6 60 64 113 127 54 63 105 122 114 131 9 8 39 42
66 73 28 32 66 75 85 95 19 21 76 82 125 135 50 54 108 117 130 141 86 90 184
196 270 289 50 54 104 113 120 131 17 18 64 69 105 115 41 45 86 95 100 110
36 40 133 149 166 188 16 19 43 48 59 66 33 36 111 128 135 158 8 10 25 31 38
46 13 15 76 92 140 172 64 80 119 147 122 150 3 3 46 59 95 125 49 66 115 155
147 198 32 42 58 80 58 83 0 5 55 82 80 111 5 7 10 15 10 18 0 3 22 38 49 78
64 95 136 208 144 227 4 8 16 29 27 45 26 41 221 396 227 415 1 3 18 40 37 82
20 42 36 81 36 87 0 5 3 11 8 13 6 3 70 147 76 173 1 6 10 28 20 50 10 22 25
63 33 90 8 28 18 55 21 60 4 6 8 15 9 20 1 6 23 77 48 158 25 82 47 158 49
170 2 12 7 29 10 37 3 8 8 26 10 40 3 14 7 36 10 50 16 72 36 176 41 215 6 44
17 125 21 160 1 17 3 30 4 30 13 0 19 524 7 655 -6 70 -9 97 -23 175 -3 17 -5
37 -6 45 0 17 -9 63 -33 166 -9 38 -17 77 -19 85 -2 7 -5 21 -8 29 -3 8 -20
60 -37 115 -18 54 -44 129 -58 165 -34 86 -150 320 -170 343 -9 9 -13 17 -9
17 4 0 -11 27 -34 59 -22 33 -40 62 -40 65 0 3 -6 14 -14 23 -8 10 -45 59 -83
109 -101 136 -145 186 -283 324 -118 118 -165 161 -270 245 -25 20 -53 43 -63
51 -9 8 -41 31 -70 51 -28 20 -54 39 -57 43 -3 4 -16 13 -29 20 -14 7 -30 17
-35 21 -34 28 -214 139 -226 139 -5 0 -10 3 -12 8 -3 8 -38 26 -218 117 -151
76 -204 100 -415 185 -19 8 -67 25 -187 69 -52 19 -149 50 -178 57 -8 2 -55
15 -105 30 -49 14 -106 29 -125 34 -94 24 -244 59 -275 65 -21 4 -98 19 -150
29 -57 12 -80 16 -120 21 -22 3 -51 8 -65 11 -14 2 -36 6 -50 9 -42 7 -244 33
-260 33 -8 0 -33 3 -55 6 -49 6 -160 17 -235 23 -66 5 -747 13 -752 8z m6
-1101 c3 -8 2 -14 -2 -14 -4 0 -5 -86 -2 -191 3 -105 3 -192 0 -194 -3 -2 -3
-56 0 -120 3 -64 3 -118 0 -120 -3 -2 -3 -164 0 -360 3 -196 3 -358 0 -360 -3
-2 -3 -56 0 -120 3 -64 3 -118 0 -120 -3 -2 -3 -164 0 -360 3 -196 3 -358 0
-360 -3 -2 -3 -56 0 -120 3 -64 3 -118 0 -120 -3 -2 -3 -164 0 -360 3 -196 3
-358 0 -360 -3 -2 -3 -56 0 -120 3 -64 3 -118 0 -120 -3 -2 -3 -236 0 -520 3
-284 3 -518 0 -520 -3 -2 -3 -56 0 -120 3 -64 3 -118 0 -120 -3 -2 -3 -164 0
-360 3 -196 3 -358 0 -360 -3 -2 -3 -56 0 -120 3 -64 4 -118 2 -120 -2 -2 -3
-95 -3 -207 l0 -203 -72 145 c-40 80 -100 204 -134 275 -165 349 -220 464
-280 595 -19 41 -45 99 -59 128 -44 95 -72 156 -94 207 -12 28 -29 66 -38 85
-9 19 -17 37 -17 40 -1 3 -11 28 -24 55 -22 47 -29 62 -65 148 -8 17 -27 64
-44 102 -16 39 -46 111 -67 160 -20 50 -42 104 -49 120 -17 38 -40 98 -42 105
-2 11 -32 83 -55 133 -5 13 -11 29 -13 37 -2 8 -9 29 -15 45 -27 64 -174 479
-186 525 -1 3 -4 12 -8 20 -10 26 -71 224 -74 243 -2 9 -16 63 -33 118 -16 56
-27 105 -24 110 3 5 0 9 -7 9 -7 0 -10 3 -7 6 4 3 2 20 -4 37 -5 18 -11 39
-12 47 -1 8 -10 49 -20 90 -9 41 -20 86 -23 100 -3 14 -7 32 -8 40 -1 8 -5 29
-9 45 -3 17 -8 44 -10 62 -3 18 -7 40 -10 50 -5 20 -13 68 -22 141 -6 53 -13
103 -19 147 -17 124 -22 419 -10 580 11 145 11 150 30 245 12 60 16 77 21 104
2 16 7 32 9 36 2 3 6 18 9 32 14 81 150 410 176 428 4 3 15 21 25 40 15 30 42
68 97 141 60 79 149 172 248 258 34 30 69 44 140 56 58 10 84 15 110 20 35 8
59 12 111 19 25 4 57 8 70 11 114 18 269 34 387 39 34 2 65 6 68 8 9 10 53 -4
58 -18z m869 0 c37 -3 78 -7 90 -10 12 -2 45 -7 72 -10 28 -3 73 -9 100 -14
28 -6 59 -9 70 -9 11 0 38 -4 60 -9 22 -6 56 -13 75 -16 129 -19 210 -44 247
-76 51 -43 182 -179 213 -220 14 -18 31 -39 38 -46 6 -7 12 -17 12 -22 0 -6 4
-12 8 -14 23 -9 176 -281 165 -292 -4 -3 -1 -6 5 -6 7 0 11 -3 10 -7 0 -5 2
-15 5 -23 13 -30 30 -75 32 -82 2 -5 3 -9 5 -10 1 -2 3 -10 5 -18 1 -8 10 -36
19 -62 8 -26 18 -62 21 -80 3 -17 8 -34 10 -38 4 -6 10 -35 21 -95 2 -11 6
-40 9 -65 3 -25 8 -56 10 -70 25 -138 25 -502 1 -705 -2 -16 -7 -55 -10 -85
-3 -30 -8 -66 -10 -80 -6 -32 -16 -96 -21 -135 -3 -16 -7 -41 -10 -55 -3 -14
-10 -45 -15 -70 -15 -78 -20 -104 -26 -130 -3 -14 -7 -32 -9 -40 -2 -8 -13
-53 -24 -100 -12 -47 -23 -93 -26 -103 -2 -10 -7 -27 -10 -37 -3 -10 -8 -27
-10 -37 -2 -10 -16 -58 -30 -108 -15 -49 -28 -97 -30 -105 -2 -8 -4 -15 -5
-15 -1 0 -3 -7 -5 -15 -5 -26 -167 -504 -177 -523 -5 -10 -11 -26 -13 -35 -2
-9 -9 -30 -16 -47 -7 -16 -13 -32 -14 -35 -1 -3 -5 -13 -8 -22 -4 -10 -10 -26
-14 -35 -3 -10 -7 -20 -8 -23 -1 -3 -5 -14 -10 -25 -41 -105 -67 -172 -69
-180 -1 -5 -12 -32 -24 -59 -12 -27 -22 -55 -22 -62 0 -8 -4 -14 -8 -14 -5 0
-9 -6 -9 -12 0 -7 -7 -29 -16 -48 -35 -77 -57 -129 -57 -134 0 -3 -11 -29 -24
-58 -13 -29 -36 -82 -51 -118 -15 -36 -36 -85 -48 -110 -11 -25 -30 -67 -42
-95 -13 -27 -33 -75 -46 -105 -13 -30 -27 -58 -32 -61 -5 -3 -9 -10 -9 -15 -1
-15 -64 -159 -159 -359 -18 -38 -33 -72 -34 -75 -4 -12 -88 -189 -110 -231
-14 -25 -22 -49 -18 -53 3 -3 1 -6 -5 -6 -7 0 -12 -8 -12 -19 0 -10 -6 -24
-13 -30 -8 -6 -19 -29 -26 -51 -6 -22 -16 -40 -21 -40 -6 0 -9 -3 -8 -7 2 -5
-13 -39 -32 -78 -19 -38 -35 -72 -35 -75 -1 -8 -85 -180 -88 -180 -1 0 -2
1384 -2 3075 l0 3075 75 -5 c41 -3 106 -8 143 -11z m-3039 -664 c-13 -41 -26
-81 -28 -90 -1 -8 -8 -35 -15 -60 -7 -25 -15 -52 -16 -60 -2 -8 -8 -35 -14
-60 -14 -64 -24 -123 -36 -220 -4 -30 -9 -64 -11 -75 -21 -111 -21 -658 1
-760 5 -23 17 -127 19 -170 1 -16 4 -34 7 -40 3 -5 6 -26 8 -45 9 -126 114
-612 182 -845 48 -161 76 -251 140 -445 37 -113 82 -243 99 -290 17 -47 38
-105 47 -130 8 -25 22 -57 29 -72 8 -16 12 -28 9 -28 -3 0 3 -17 14 -37 10
-21 20 -42 21 -48 1 -5 6 -20 11 -33 5 -13 9 -25 9 -28 0 -2 9 -26 21 -52 24
-55 21 -46 95 -227 31 -77 65 -160 76 -185 11 -25 30 -70 43 -100 34 -80 51
-118 107 -243 67 -150 71 -161 70 -169 -1 -3 5 -12 13 -18 8 -7 15 -18 15 -24
0 -7 8 -30 19 -52 58 -123 76 -160 76 -164 0 -3 13 -32 29 -65 16 -33 51 -107
78 -165 27 -58 58 -123 69 -145 19 -37 15 -35 -48 31 -92 96 -249 266 -298
322 -22 25 -59 66 -83 91 -24 25 -60 66 -80 90 -20 24 -50 58 -67 76 -29 31
-112 126 -151 173 -10 13 -32 38 -48 55 -15 18 -40 48 -54 67 -15 19 -29 37
-32 40 -4 3 -33 39 -66 80 -32 41 -64 80 -70 87 -6 6 -44 56 -85 110 -41 54
-76 100 -80 103 -3 3 -21 28 -40 55 -18 28 -37 52 -40 55 -11 10 -166 237
-228 335 -35 55 -71 111 -80 125 -8 14 -21 34 -27 45 -6 11 -35 63 -65 115
-46 78 -170 322 -175 340 -1 5 -41 95 -64 145 -19 41 -70 183 -100 280 -18 55
-34 107 -38 115 -3 8 -6 23 -7 33 -2 9 -3 19 -4 22 0 3 -1 7 -1 10 -1 3 -7 23
-15 45 -8 22 -14 43 -14 45 1 6 -11 78 -17 110 -3 11 -7 38 -10 60 -3 22 -7
51 -10 65 -24 148 -24 479 1 600 3 14 8 41 11 60 3 19 10 49 15 67 6 17 12 44
15 59 8 47 74 215 117 299 42 82 147 247 192 300 14 17 34 41 46 55 72 86 210
219 306 293 65 51 226 165 230 162 1 0 -9 -34 -23 -75z m4994 20 c12 -11 25
-20 30 -20 5 0 17 -9 27 -20 10 -11 22 -20 27 -20 5 0 19 -9 31 -20 12 -11 49
-42 82 -69 104 -84 260 -245 314 -325 8 -12 18 -23 22 -26 11 -8 114 -172 142
-225 60 -115 124 -281 142 -365 41 -197 49 -264 48 -450 0 -109 -8 -252 -17
-295 -2 -11 -6 -41 -10 -66 -9 -62 -16 -101 -21 -119 -2 -8 -7 -31 -11 -50 -8
-45 -12 -65 -14 -65 -1 0 -3 -10 -6 -22 -5 -31 -50 -183 -64 -218 -6 -16 -13
-37 -15 -45 -3 -15 -67 -181 -88 -230 -5 -14 -11 -27 -12 -30 -8 -31 -139
-295 -149 -302 -6 -4 -7 -8 -2 -8 5 0 4 -6 -2 -12 -5 -7 -19 -29 -29 -48 -11
-19 -35 -62 -53 -95 -77 -140 -275 -447 -291 -453 -5 -2 -9 -9 -9 -15 0 -7
-11 -25 -25 -42 -13 -16 -28 -34 -33 -40 -4 -5 -17 -25 -27 -42 -11 -18 -23
-33 -27 -33 -4 0 -8 -5 -8 -12 0 -6 -7 -18 -15 -27 -9 -9 -43 -52 -76 -96 -33
-44 -65 -87 -72 -95 -7 -8 -37 -47 -67 -85 -30 -39 -57 -72 -60 -75 -3 -3 -25
-30 -50 -60 -25 -30 -49 -60 -55 -66 -5 -7 -19 -22 -29 -35 -24 -30 -186 -218
-206 -239 -8 -9 -40 -45 -70 -79 -30 -35 -73 -82 -95 -106 -22 -24 -69 -76
-105 -115 -36 -40 -91 -100 -123 -134 -32 -33 -70 -76 -84 -94 -27 -34 -42
-38 -24 -5 10 18 63 133 66 143 1 3 18 41 39 85 33 69 169 367 211 460 7 17
27 61 44 98 17 38 31 70 31 73 0 4 22 55 65 149 13 28 53 124 90 215 37 91 74
179 81 197 8 17 14 34 14 37 0 3 9 25 19 49 21 45 92 225 96 242 1 6 5 17 8
25 34 79 213 603 222 650 2 8 4 16 5 18 2 1 3 5 5 10 1 4 4 14 7 22 7 18 60
201 62 215 1 6 5 19 9 30 3 11 9 31 11 45 3 14 22 88 41 165 19 77 37 149 39
160 13 61 75 407 80 448 3 26 8 66 11 90 3 23 7 60 10 82 7 62 17 183 19 256
1 36 6 71 10 77 4 7 3 12 -1 12 -5 0 -7 17 -5 38 1 20 3 43 2 50 0 15 0 38 0
55 2 71 -24 396 -36 447 -3 14 -8 40 -10 58 -3 19 -11 61 -18 93 -8 32 -12 59
-9 59 3 0 0 6 -6 14 -6 8 -11 18 -10 22 1 5 0 12 -1 17 -3 9 -5 15 -14 52 -18
67 -40 131 -49 143 -16 20 17 14 41 -8z"/>
<path d="M4320 2410 c-4 -3 -6 -12 -5 -20 11 -64 17 -112 20 -155 2 -27 5 -50
5 -50 1 0 3 -16 6 -35 2 -19 7 -53 10 -75 3 -22 7 -58 9 -80 2 -22 6 -53 9
-70 4 -28 15 -107 21 -165 2 -14 6 -50 9 -80 6 -50 9 -72 22 -165 2 -16 6 -52
9 -78 3 -27 7 -52 10 -57 3 -5 1 -11 -5 -15 -6 -4 -7 -11 -4 -17 9 -14 8 -503
0 -517 -4 -6 -4 -11 1 -11 7 0 9 -75 3 -90 -1 -3 -1 -9 0 -15 6 -28 5 -93 -2
-112 -4 -13 -4 -23 0 -23 4 0 8 -20 9 -45 3 -52 30 -152 44 -161 5 -3 7 -10 4
-15 -4 -5 -3 -9 2 -9 4 0 14 -13 21 -28 21 -48 126 -160 172 -184 14 -7 30
-20 37 -28 7 -8 13 -11 13 -7 0 5 12 0 28 -11 49 -34 138 -65 232 -80 55 -9
1159 -9 1215 -1 22 4 52 12 68 18 15 6 27 8 27 5 0 -4 7 -1 15 6 8 7 15 10 15
6 0 -3 23 5 50 19 28 14 50 22 50 18 0 -5 4 -3 8 3 4 6 32 27 62 46 106 68
189 174 235 302 23 64 23 68 25 534 0 259 3 480 5 493 3 12 7 45 10 73 3 28 7
67 10 86 3 19 8 55 10 80 3 25 7 59 9 75 3 17 7 57 11 90 4 33 9 71 11 85 3
14 7 41 9 60 12 112 17 159 24 197 5 22 8 57 7 77 -1 20 2 36 6 36 3 0 5 8 4
17 -2 10 0 32 4 49 l7 31 -263 -1 -264 -1 -5 -25 c-9 -42 -12 -63 -19 -125 -4
-33 -9 -80 -12 -105 -3 -25 -7 -52 -9 -60 -3 -8 -7 -42 -10 -75 -3 -33 -7 -76
-10 -95 -9 -54 -16 -121 -19 -162 -1 -21 -6 -41 -10 -45 -8 -8 -1336 -11
-1342 -2 -5 9 -13 58 -19 124 -3 33 -8 71 -10 85 -5 31 -13 92 -20 148 -3 23
-7 61 -10 85 -3 23 -7 56 -10 72 -19 161 -20 163 -29 172 -8 8 -503 11 -516 3z"/>
</g>
</svg>
